<mxfile host="app.diagrams.net" modified="2021-07-08T08:37:47.683Z" agent="5.0 (Windows NT 10.0; Win64; x64) AppleWebKit/537.36 (KHTML, like Gecko) Chrome/91.0.4472.124 Safari/537.36" etag="mCE1rpw_I0PVtZ02lq3E" version="14.7.6" type="github">
  <diagram id="pEAVa72YgmCCxYQyTQ9y" name="Page-1">
    <mxGraphModel dx="1944" dy="1838" grid="1" gridSize="10" guides="1" tooltips="1" connect="1" arrows="1" fold="1" page="1" pageScale="1" pageWidth="827" pageHeight="1169" math="0" shadow="0">
      <root>
        <mxCell id="0" />
        <mxCell id="1" parent="0" />
        <mxCell id="B7gfF72Y0WXTD0_EOY2E-4" style="edgeStyle=orthogonalEdgeStyle;rounded=0;orthogonalLoop=1;jettySize=auto;html=1;entryX=0;entryY=0.5;entryDx=0;entryDy=0;" edge="1" parent="1" source="B7gfF72Y0WXTD0_EOY2E-1" target="B7gfF72Y0WXTD0_EOY2E-2">
          <mxGeometry relative="1" as="geometry" />
        </mxCell>
        <mxCell id="B7gfF72Y0WXTD0_EOY2E-1" value="사용자&lt;br&gt;" style="shape=umlActor;verticalLabelPosition=bottom;verticalAlign=top;html=1;outlineConnect=0;" vertex="1" parent="1">
          <mxGeometry x="90" y="170" width="30" height="60" as="geometry" />
        </mxCell>
        <mxCell id="B7gfF72Y0WXTD0_EOY2E-5" style="edgeStyle=orthogonalEdgeStyle;rounded=0;orthogonalLoop=1;jettySize=auto;html=1;entryX=0;entryY=0.5;entryDx=0;entryDy=0;" edge="1" parent="1" source="B7gfF72Y0WXTD0_EOY2E-2" target="B7gfF72Y0WXTD0_EOY2E-3">
          <mxGeometry relative="1" as="geometry">
            <Array as="points">
              <mxPoint x="470" y="200" />
              <mxPoint x="470" y="200" />
            </Array>
          </mxGeometry>
        </mxCell>
        <mxCell id="B7gfF72Y0WXTD0_EOY2E-7" style="edgeStyle=orthogonalEdgeStyle;rounded=0;orthogonalLoop=1;jettySize=auto;html=1;entryX=0;entryY=0.75;entryDx=0;entryDy=0;" edge="1" parent="1" source="B7gfF72Y0WXTD0_EOY2E-2" target="B7gfF72Y0WXTD0_EOY2E-6">
          <mxGeometry relative="1" as="geometry" />
        </mxCell>
        <mxCell id="B7gfF72Y0WXTD0_EOY2E-12" style="edgeStyle=orthogonalEdgeStyle;rounded=0;orthogonalLoop=1;jettySize=auto;html=1;entryX=0.5;entryY=1;entryDx=0;entryDy=0;" edge="1" parent="1" source="B7gfF72Y0WXTD0_EOY2E-2" target="B7gfF72Y0WXTD0_EOY2E-11">
          <mxGeometry relative="1" as="geometry" />
        </mxCell>
        <mxCell id="B7gfF72Y0WXTD0_EOY2E-25" style="edgeStyle=orthogonalEdgeStyle;rounded=0;orthogonalLoop=1;jettySize=auto;html=1;" edge="1" parent="1" source="B7gfF72Y0WXTD0_EOY2E-2" target="B7gfF72Y0WXTD0_EOY2E-24">
          <mxGeometry relative="1" as="geometry" />
        </mxCell>
        <mxCell id="B7gfF72Y0WXTD0_EOY2E-45" style="edgeStyle=orthogonalEdgeStyle;rounded=0;orthogonalLoop=1;jettySize=auto;html=1;" edge="1" parent="1" source="B7gfF72Y0WXTD0_EOY2E-2">
          <mxGeometry relative="1" as="geometry">
            <mxPoint x="150" y="460" as="targetPoint" />
            <Array as="points">
              <mxPoint x="354" y="300" />
              <mxPoint x="150" y="300" />
              <mxPoint x="150" y="440" />
            </Array>
          </mxGeometry>
        </mxCell>
        <mxCell id="B7gfF72Y0WXTD0_EOY2E-48" style="edgeStyle=orthogonalEdgeStyle;rounded=0;orthogonalLoop=1;jettySize=auto;html=1;" edge="1" parent="1" source="B7gfF72Y0WXTD0_EOY2E-2" target="B7gfF72Y0WXTD0_EOY2E-47">
          <mxGeometry relative="1" as="geometry">
            <Array as="points">
              <mxPoint x="354" y="400" />
              <mxPoint x="570" y="400" />
            </Array>
          </mxGeometry>
        </mxCell>
        <mxCell id="B7gfF72Y0WXTD0_EOY2E-50" style="edgeStyle=orthogonalEdgeStyle;rounded=0;orthogonalLoop=1;jettySize=auto;html=1;" edge="1" parent="1" source="B7gfF72Y0WXTD0_EOY2E-2" target="B7gfF72Y0WXTD0_EOY2E-49">
          <mxGeometry relative="1" as="geometry">
            <Array as="points">
              <mxPoint x="354" y="300" />
              <mxPoint x="10" y="300" />
            </Array>
          </mxGeometry>
        </mxCell>
        <mxCell id="B7gfF72Y0WXTD0_EOY2E-54" style="edgeStyle=orthogonalEdgeStyle;rounded=0;orthogonalLoop=1;jettySize=auto;html=1;entryX=0.5;entryY=0;entryDx=0;entryDy=0;" edge="1" parent="1" source="B7gfF72Y0WXTD0_EOY2E-2" target="B7gfF72Y0WXTD0_EOY2E-53">
          <mxGeometry relative="1" as="geometry">
            <Array as="points">
              <mxPoint x="354" y="300" />
              <mxPoint x="-170" y="300" />
            </Array>
          </mxGeometry>
        </mxCell>
        <mxCell id="B7gfF72Y0WXTD0_EOY2E-59" style="edgeStyle=orthogonalEdgeStyle;rounded=0;orthogonalLoop=1;jettySize=auto;html=1;" edge="1" parent="1" source="B7gfF72Y0WXTD0_EOY2E-2" target="B7gfF72Y0WXTD0_EOY2E-58">
          <mxGeometry relative="1" as="geometry">
            <Array as="points">
              <mxPoint x="354" y="400" />
              <mxPoint x="750" y="400" />
            </Array>
          </mxGeometry>
        </mxCell>
        <mxCell id="B7gfF72Y0WXTD0_EOY2E-2" value="index" style="rounded=0;whiteSpace=wrap;html=1;" vertex="1" parent="1">
          <mxGeometry x="294" y="170" width="120" height="60" as="geometry" />
        </mxCell>
        <mxCell id="B7gfF72Y0WXTD0_EOY2E-10" style="edgeStyle=orthogonalEdgeStyle;rounded=0;orthogonalLoop=1;jettySize=auto;html=1;entryX=0.5;entryY=0;entryDx=0;entryDy=0;" edge="1" parent="1" source="B7gfF72Y0WXTD0_EOY2E-3" target="B7gfF72Y0WXTD0_EOY2E-2">
          <mxGeometry relative="1" as="geometry">
            <Array as="points">
              <mxPoint x="570" y="150" />
              <mxPoint x="354" y="150" />
            </Array>
          </mxGeometry>
        </mxCell>
        <mxCell id="B7gfF72Y0WXTD0_EOY2E-3" value="로그인&lt;br&gt;" style="rounded=0;whiteSpace=wrap;html=1;" vertex="1" parent="1">
          <mxGeometry x="510" y="170" width="120" height="60" as="geometry" />
        </mxCell>
        <mxCell id="B7gfF72Y0WXTD0_EOY2E-8" style="edgeStyle=orthogonalEdgeStyle;rounded=0;orthogonalLoop=1;jettySize=auto;html=1;" edge="1" parent="1" source="B7gfF72Y0WXTD0_EOY2E-6" target="B7gfF72Y0WXTD0_EOY2E-2">
          <mxGeometry relative="1" as="geometry">
            <mxPoint x="330" y="250" as="targetPoint" />
            <Array as="points">
              <mxPoint x="570" y="370" />
              <mxPoint x="390" y="370" />
            </Array>
          </mxGeometry>
        </mxCell>
        <mxCell id="B7gfF72Y0WXTD0_EOY2E-6" value="회원가입&lt;br&gt;" style="rounded=0;whiteSpace=wrap;html=1;" vertex="1" parent="1">
          <mxGeometry x="510" y="290" width="120" height="60" as="geometry" />
        </mxCell>
        <mxCell id="B7gfF72Y0WXTD0_EOY2E-13" style="edgeStyle=orthogonalEdgeStyle;rounded=0;orthogonalLoop=1;jettySize=auto;html=1;entryX=0;entryY=0.5;entryDx=0;entryDy=0;" edge="1" parent="1" source="B7gfF72Y0WXTD0_EOY2E-11" target="B7gfF72Y0WXTD0_EOY2E-14">
          <mxGeometry relative="1" as="geometry">
            <mxPoint x="480" y="30" as="targetPoint" />
          </mxGeometry>
        </mxCell>
        <mxCell id="B7gfF72Y0WXTD0_EOY2E-16" style="edgeStyle=orthogonalEdgeStyle;rounded=0;orthogonalLoop=1;jettySize=auto;html=1;entryX=0;entryY=0.5;entryDx=0;entryDy=0;" edge="1" parent="1" source="B7gfF72Y0WXTD0_EOY2E-11" target="B7gfF72Y0WXTD0_EOY2E-15">
          <mxGeometry relative="1" as="geometry">
            <Array as="points">
              <mxPoint x="354" y="-50" />
            </Array>
          </mxGeometry>
        </mxCell>
        <mxCell id="B7gfF72Y0WXTD0_EOY2E-20" style="edgeStyle=orthogonalEdgeStyle;rounded=0;orthogonalLoop=1;jettySize=auto;html=1;entryX=0;entryY=0.5;entryDx=0;entryDy=0;" edge="1" parent="1" source="B7gfF72Y0WXTD0_EOY2E-11" target="B7gfF72Y0WXTD0_EOY2E-18">
          <mxGeometry relative="1" as="geometry">
            <Array as="points">
              <mxPoint x="354" y="-130" />
            </Array>
          </mxGeometry>
        </mxCell>
        <mxCell id="B7gfF72Y0WXTD0_EOY2E-23" style="edgeStyle=orthogonalEdgeStyle;rounded=0;orthogonalLoop=1;jettySize=auto;html=1;entryX=0;entryY=0.5;entryDx=0;entryDy=0;" edge="1" parent="1" source="B7gfF72Y0WXTD0_EOY2E-11" target="B7gfF72Y0WXTD0_EOY2E-22">
          <mxGeometry relative="1" as="geometry">
            <Array as="points">
              <mxPoint x="354" y="-220" />
            </Array>
          </mxGeometry>
        </mxCell>
        <mxCell id="B7gfF72Y0WXTD0_EOY2E-36" style="edgeStyle=orthogonalEdgeStyle;rounded=0;orthogonalLoop=1;jettySize=auto;html=1;entryX=0;entryY=0.25;entryDx=0;entryDy=0;" edge="1" parent="1" source="B7gfF72Y0WXTD0_EOY2E-11" target="B7gfF72Y0WXTD0_EOY2E-35">
          <mxGeometry relative="1" as="geometry">
            <Array as="points">
              <mxPoint x="354" y="-315" />
            </Array>
          </mxGeometry>
        </mxCell>
        <mxCell id="B7gfF72Y0WXTD0_EOY2E-41" style="edgeStyle=orthogonalEdgeStyle;rounded=0;orthogonalLoop=1;jettySize=auto;html=1;entryX=0;entryY=0.5;entryDx=0;entryDy=0;" edge="1" parent="1" source="B7gfF72Y0WXTD0_EOY2E-11" target="B7gfF72Y0WXTD0_EOY2E-40">
          <mxGeometry relative="1" as="geometry">
            <Array as="points">
              <mxPoint x="354" y="-380" />
            </Array>
          </mxGeometry>
        </mxCell>
        <mxCell id="B7gfF72Y0WXTD0_EOY2E-43" style="edgeStyle=orthogonalEdgeStyle;rounded=0;orthogonalLoop=1;jettySize=auto;html=1;entryX=0;entryY=0.5;entryDx=0;entryDy=0;" edge="1" parent="1" source="B7gfF72Y0WXTD0_EOY2E-11" target="B7gfF72Y0WXTD0_EOY2E-42">
          <mxGeometry relative="1" as="geometry">
            <Array as="points">
              <mxPoint x="354" y="-460" />
            </Array>
          </mxGeometry>
        </mxCell>
        <mxCell id="B7gfF72Y0WXTD0_EOY2E-11" value="마이페이지" style="rounded=0;whiteSpace=wrap;html=1;" vertex="1" parent="1">
          <mxGeometry x="294" width="120" height="60" as="geometry" />
        </mxCell>
        <mxCell id="B7gfF72Y0WXTD0_EOY2E-14" value="회원정보수정" style="rounded=0;whiteSpace=wrap;html=1;" vertex="1" parent="1">
          <mxGeometry x="490" width="120" height="60" as="geometry" />
        </mxCell>
        <mxCell id="B7gfF72Y0WXTD0_EOY2E-15" value="회원정보수정" style="rounded=0;whiteSpace=wrap;html=1;" vertex="1" parent="1">
          <mxGeometry x="490" y="-80" width="120" height="60" as="geometry" />
        </mxCell>
        <mxCell id="B7gfF72Y0WXTD0_EOY2E-18" value="내 펀딩 후원내역" style="rounded=0;whiteSpace=wrap;html=1;" vertex="1" parent="1">
          <mxGeometry x="490" y="-160" width="120" height="60" as="geometry" />
        </mxCell>
        <mxCell id="B7gfF72Y0WXTD0_EOY2E-44" style="edgeStyle=orthogonalEdgeStyle;rounded=0;orthogonalLoop=1;jettySize=auto;html=1;entryX=0;entryY=0.5;entryDx=0;entryDy=0;" edge="1" parent="1" source="B7gfF72Y0WXTD0_EOY2E-22" target="B7gfF72Y0WXTD0_EOY2E-32">
          <mxGeometry relative="1" as="geometry" />
        </mxCell>
        <mxCell id="B7gfF72Y0WXTD0_EOY2E-22" value="내 펀딩내역&lt;br&gt;" style="rounded=0;whiteSpace=wrap;html=1;" vertex="1" parent="1">
          <mxGeometry x="490" y="-250" width="120" height="60" as="geometry" />
        </mxCell>
        <mxCell id="B7gfF72Y0WXTD0_EOY2E-34" style="edgeStyle=orthogonalEdgeStyle;rounded=0;orthogonalLoop=1;jettySize=auto;html=1;entryX=0.5;entryY=0;entryDx=0;entryDy=0;" edge="1" parent="1" source="B7gfF72Y0WXTD0_EOY2E-24" target="B7gfF72Y0WXTD0_EOY2E-33">
          <mxGeometry relative="1" as="geometry" />
        </mxCell>
        <mxCell id="B7gfF72Y0WXTD0_EOY2E-24" value="펀딩 게시판" style="rounded=0;whiteSpace=wrap;html=1;" vertex="1" parent="1">
          <mxGeometry x="294" y="460" width="120" height="60" as="geometry" />
        </mxCell>
        <mxCell id="B7gfF72Y0WXTD0_EOY2E-31" style="edgeStyle=orthogonalEdgeStyle;rounded=0;orthogonalLoop=1;jettySize=auto;html=1;entryX=0;entryY=0.5;entryDx=0;entryDy=0;" edge="1" parent="1" source="B7gfF72Y0WXTD0_EOY2E-27" target="B7gfF72Y0WXTD0_EOY2E-30">
          <mxGeometry relative="1" as="geometry" />
        </mxCell>
        <mxCell id="B7gfF72Y0WXTD0_EOY2E-27" value="관리자" style="shape=umlActor;verticalLabelPosition=bottom;verticalAlign=top;html=1;outlineConnect=0;" vertex="1" parent="1">
          <mxGeometry x="180" y="1200" width="30" height="60" as="geometry" />
        </mxCell>
        <mxCell id="B7gfF72Y0WXTD0_EOY2E-61" style="edgeStyle=orthogonalEdgeStyle;rounded=0;orthogonalLoop=1;jettySize=auto;html=1;entryX=0;entryY=0.5;entryDx=0;entryDy=0;" edge="1" parent="1" source="B7gfF72Y0WXTD0_EOY2E-30" target="B7gfF72Y0WXTD0_EOY2E-60">
          <mxGeometry relative="1" as="geometry" />
        </mxCell>
        <mxCell id="B7gfF72Y0WXTD0_EOY2E-74" style="edgeStyle=orthogonalEdgeStyle;rounded=0;orthogonalLoop=1;jettySize=auto;html=1;entryX=0;entryY=0.5;entryDx=0;entryDy=0;" edge="1" parent="1" source="B7gfF72Y0WXTD0_EOY2E-30" target="B7gfF72Y0WXTD0_EOY2E-73">
          <mxGeometry relative="1" as="geometry" />
        </mxCell>
        <mxCell id="B7gfF72Y0WXTD0_EOY2E-30" value="로그인" style="rounded=0;whiteSpace=wrap;html=1;" vertex="1" parent="1">
          <mxGeometry x="280" y="1200" width="120" height="60" as="geometry" />
        </mxCell>
        <mxCell id="B7gfF72Y0WXTD0_EOY2E-32" value="펀딩 관리&lt;br&gt;" style="rounded=0;whiteSpace=wrap;html=1;" vertex="1" parent="1">
          <mxGeometry x="660" y="-250" width="120" height="60" as="geometry" />
        </mxCell>
        <mxCell id="B7gfF72Y0WXTD0_EOY2E-38" style="edgeStyle=orthogonalEdgeStyle;rounded=0;orthogonalLoop=1;jettySize=auto;html=1;entryX=0.5;entryY=0;entryDx=0;entryDy=0;" edge="1" parent="1" source="B7gfF72Y0WXTD0_EOY2E-33" target="B7gfF72Y0WXTD0_EOY2E-37">
          <mxGeometry relative="1" as="geometry" />
        </mxCell>
        <mxCell id="B7gfF72Y0WXTD0_EOY2E-87" style="edgeStyle=orthogonalEdgeStyle;rounded=0;orthogonalLoop=1;jettySize=auto;html=1;entryX=0.5;entryY=0;entryDx=0;entryDy=0;" edge="1" parent="1" source="B7gfF72Y0WXTD0_EOY2E-33" target="B7gfF72Y0WXTD0_EOY2E-86">
          <mxGeometry relative="1" as="geometry">
            <Array as="points">
              <mxPoint x="354" y="650" />
              <mxPoint x="540" y="650" />
            </Array>
          </mxGeometry>
        </mxCell>
        <mxCell id="B7gfF72Y0WXTD0_EOY2E-33" value="펀딩 상세내용&lt;br&gt;" style="rounded=0;whiteSpace=wrap;html=1;" vertex="1" parent="1">
          <mxGeometry x="294" y="550" width="120" height="60" as="geometry" />
        </mxCell>
        <mxCell id="B7gfF72Y0WXTD0_EOY2E-35" value="좋아요 한 펀딩내역" style="rounded=0;whiteSpace=wrap;html=1;" vertex="1" parent="1">
          <mxGeometry x="490" y="-330" width="120" height="60" as="geometry" />
        </mxCell>
        <mxCell id="B7gfF72Y0WXTD0_EOY2E-37" value="펀딩하기&lt;br&gt;" style="rounded=0;whiteSpace=wrap;html=1;" vertex="1" parent="1">
          <mxGeometry x="294" y="710" width="120" height="60" as="geometry" />
        </mxCell>
        <mxCell id="B7gfF72Y0WXTD0_EOY2E-40" value="포인트 충전내역&lt;br&gt;" style="rounded=0;whiteSpace=wrap;html=1;" vertex="1" parent="1">
          <mxGeometry x="490" y="-410" width="120" height="60" as="geometry" />
        </mxCell>
        <mxCell id="B7gfF72Y0WXTD0_EOY2E-42" value="포인트 충전&lt;br&gt;" style="rounded=0;whiteSpace=wrap;html=1;" vertex="1" parent="1">
          <mxGeometry x="490" y="-490" width="120" height="60" as="geometry" />
        </mxCell>
        <mxCell id="B7gfF72Y0WXTD0_EOY2E-83" style="edgeStyle=orthogonalEdgeStyle;rounded=0;orthogonalLoop=1;jettySize=auto;html=1;entryX=0;entryY=0.5;entryDx=0;entryDy=0;" edge="1" parent="1" source="B7gfF72Y0WXTD0_EOY2E-46" target="B7gfF72Y0WXTD0_EOY2E-33">
          <mxGeometry relative="1" as="geometry">
            <Array as="points">
              <mxPoint x="150" y="700" />
              <mxPoint x="240" y="700" />
              <mxPoint x="240" y="580" />
            </Array>
          </mxGeometry>
        </mxCell>
        <mxCell id="B7gfF72Y0WXTD0_EOY2E-46" value="카테고리별 &lt;br&gt;펀딩 게시판&lt;br&gt;" style="rounded=0;whiteSpace=wrap;html=1;" vertex="1" parent="1">
          <mxGeometry x="90" y="460" width="120" height="60" as="geometry" />
        </mxCell>
        <mxCell id="B7gfF72Y0WXTD0_EOY2E-84" style="edgeStyle=orthogonalEdgeStyle;rounded=0;orthogonalLoop=1;jettySize=auto;html=1;entryX=1;entryY=0.5;entryDx=0;entryDy=0;" edge="1" parent="1" source="B7gfF72Y0WXTD0_EOY2E-47" target="B7gfF72Y0WXTD0_EOY2E-33">
          <mxGeometry relative="1" as="geometry">
            <Array as="points">
              <mxPoint x="570" y="580" />
            </Array>
          </mxGeometry>
        </mxCell>
        <mxCell id="B7gfF72Y0WXTD0_EOY2E-47" value="성공임박 프로젝트&lt;br&gt;" style="rounded=0;whiteSpace=wrap;html=1;" vertex="1" parent="1">
          <mxGeometry x="510" y="460" width="120" height="60" as="geometry" />
        </mxCell>
        <mxCell id="B7gfF72Y0WXTD0_EOY2E-52" style="edgeStyle=orthogonalEdgeStyle;rounded=0;orthogonalLoop=1;jettySize=auto;html=1;entryX=0.5;entryY=0;entryDx=0;entryDy=0;" edge="1" parent="1" source="B7gfF72Y0WXTD0_EOY2E-49" target="B7gfF72Y0WXTD0_EOY2E-51">
          <mxGeometry relative="1" as="geometry" />
        </mxCell>
        <mxCell id="B7gfF72Y0WXTD0_EOY2E-49" value="검색&lt;br&gt;" style="rhombus;whiteSpace=wrap;html=1;" vertex="1" parent="1">
          <mxGeometry x="-30" y="450" width="80" height="80" as="geometry" />
        </mxCell>
        <mxCell id="B7gfF72Y0WXTD0_EOY2E-82" style="edgeStyle=orthogonalEdgeStyle;rounded=0;orthogonalLoop=1;jettySize=auto;html=1;entryX=0;entryY=0.5;entryDx=0;entryDy=0;" edge="1" parent="1" source="B7gfF72Y0WXTD0_EOY2E-51" target="B7gfF72Y0WXTD0_EOY2E-33">
          <mxGeometry relative="1" as="geometry">
            <Array as="points">
              <mxPoint x="10" y="700" />
              <mxPoint x="240" y="700" />
              <mxPoint x="240" y="580" />
            </Array>
          </mxGeometry>
        </mxCell>
        <mxCell id="B7gfF72Y0WXTD0_EOY2E-51" value="검색된 태그 &lt;br&gt;펀딩 게시판&lt;br&gt;" style="rounded=0;whiteSpace=wrap;html=1;" vertex="1" parent="1">
          <mxGeometry x="-50" y="585" width="120" height="60" as="geometry" />
        </mxCell>
        <mxCell id="B7gfF72Y0WXTD0_EOY2E-56" style="edgeStyle=orthogonalEdgeStyle;rounded=0;orthogonalLoop=1;jettySize=auto;html=1;entryX=0;entryY=0.5;entryDx=0;entryDy=0;" edge="1" parent="1" source="B7gfF72Y0WXTD0_EOY2E-53" target="B7gfF72Y0WXTD0_EOY2E-24">
          <mxGeometry relative="1" as="geometry">
            <Array as="points">
              <mxPoint x="-170" y="700" />
              <mxPoint x="240" y="700" />
              <mxPoint x="240" y="490" />
            </Array>
          </mxGeometry>
        </mxCell>
        <mxCell id="B7gfF72Y0WXTD0_EOY2E-53" value="펀딩 글 올리기&lt;br&gt;" style="rounded=0;whiteSpace=wrap;html=1;" vertex="1" parent="1">
          <mxGeometry x="-230" y="460" width="120" height="60" as="geometry" />
        </mxCell>
        <mxCell id="B7gfF72Y0WXTD0_EOY2E-85" style="edgeStyle=orthogonalEdgeStyle;rounded=0;orthogonalLoop=1;jettySize=auto;html=1;entryX=1;entryY=0.5;entryDx=0;entryDy=0;" edge="1" parent="1" source="B7gfF72Y0WXTD0_EOY2E-58" target="B7gfF72Y0WXTD0_EOY2E-33">
          <mxGeometry relative="1" as="geometry">
            <Array as="points">
              <mxPoint x="750" y="580" />
            </Array>
          </mxGeometry>
        </mxCell>
        <mxCell id="B7gfF72Y0WXTD0_EOY2E-58" value="신규 프로젝트&lt;br&gt;" style="rounded=0;whiteSpace=wrap;html=1;" vertex="1" parent="1">
          <mxGeometry x="690" y="460" width="120" height="60" as="geometry" />
        </mxCell>
        <mxCell id="B7gfF72Y0WXTD0_EOY2E-66" style="edgeStyle=orthogonalEdgeStyle;rounded=0;orthogonalLoop=1;jettySize=auto;html=1;entryX=0.5;entryY=0;entryDx=0;entryDy=0;" edge="1" parent="1" source="B7gfF72Y0WXTD0_EOY2E-60" target="B7gfF72Y0WXTD0_EOY2E-65">
          <mxGeometry relative="1" as="geometry" />
        </mxCell>
        <mxCell id="B7gfF72Y0WXTD0_EOY2E-60" value="등록된 펀딩 게시글&lt;br&gt;" style="rounded=0;whiteSpace=wrap;html=1;" vertex="1" parent="1">
          <mxGeometry x="480" y="1200" width="120" height="60" as="geometry" />
        </mxCell>
        <mxCell id="B7gfF72Y0WXTD0_EOY2E-69" style="edgeStyle=orthogonalEdgeStyle;rounded=0;orthogonalLoop=1;jettySize=auto;html=1;entryX=0.5;entryY=0;entryDx=0;entryDy=0;" edge="1" parent="1" source="B7gfF72Y0WXTD0_EOY2E-65" target="B7gfF72Y0WXTD0_EOY2E-68">
          <mxGeometry relative="1" as="geometry" />
        </mxCell>
        <mxCell id="B7gfF72Y0WXTD0_EOY2E-65" value="펀딩 상세내역&lt;br&gt;" style="rounded=0;whiteSpace=wrap;html=1;" vertex="1" parent="1">
          <mxGeometry x="480" y="1310" width="120" height="60" as="geometry" />
        </mxCell>
        <mxCell id="B7gfF72Y0WXTD0_EOY2E-72" style="edgeStyle=orthogonalEdgeStyle;rounded=0;orthogonalLoop=1;jettySize=auto;html=1;entryX=0;entryY=0.5;entryDx=0;entryDy=0;" edge="1" parent="1" source="B7gfF72Y0WXTD0_EOY2E-68" target="B7gfF72Y0WXTD0_EOY2E-71">
          <mxGeometry relative="1" as="geometry" />
        </mxCell>
        <mxCell id="B7gfF72Y0WXTD0_EOY2E-68" value="승인" style="rhombus;whiteSpace=wrap;html=1;" vertex="1" parent="1">
          <mxGeometry x="500" y="1410" width="80" height="80" as="geometry" />
        </mxCell>
        <mxCell id="B7gfF72Y0WXTD0_EOY2E-71" value="index&lt;br&gt;" style="rounded=0;whiteSpace=wrap;html=1;" vertex="1" parent="1">
          <mxGeometry x="650" y="1420" width="120" height="60" as="geometry" />
        </mxCell>
        <mxCell id="B7gfF72Y0WXTD0_EOY2E-76" style="edgeStyle=orthogonalEdgeStyle;rounded=0;orthogonalLoop=1;jettySize=auto;html=1;entryX=0;entryY=0.5;entryDx=0;entryDy=0;" edge="1" parent="1" source="B7gfF72Y0WXTD0_EOY2E-73" target="B7gfF72Y0WXTD0_EOY2E-75">
          <mxGeometry relative="1" as="geometry" />
        </mxCell>
        <mxCell id="B7gfF72Y0WXTD0_EOY2E-73" value="신고 유저 확인&lt;br&gt;" style="rounded=0;whiteSpace=wrap;html=1;" vertex="1" parent="1">
          <mxGeometry x="480" y="1109" width="120" height="60" as="geometry" />
        </mxCell>
        <mxCell id="B7gfF72Y0WXTD0_EOY2E-80" style="edgeStyle=orthogonalEdgeStyle;rounded=0;orthogonalLoop=1;jettySize=auto;html=1;entryX=0;entryY=0.5;entryDx=0;entryDy=0;" edge="1" parent="1" source="B7gfF72Y0WXTD0_EOY2E-75" target="B7gfF72Y0WXTD0_EOY2E-79">
          <mxGeometry relative="1" as="geometry" />
        </mxCell>
        <mxCell id="B7gfF72Y0WXTD0_EOY2E-75" value="신고내역&lt;br&gt;" style="rounded=0;whiteSpace=wrap;html=1;" vertex="1" parent="1">
          <mxGeometry x="630" y="1109" width="120" height="60" as="geometry" />
        </mxCell>
        <mxCell id="B7gfF72Y0WXTD0_EOY2E-77" value="블랙리스트 추가" style="rounded=0;whiteSpace=wrap;html=1;" vertex="1" parent="1">
          <mxGeometry x="940" y="1109" width="120" height="60" as="geometry" />
        </mxCell>
        <mxCell id="B7gfF72Y0WXTD0_EOY2E-81" style="edgeStyle=orthogonalEdgeStyle;rounded=0;orthogonalLoop=1;jettySize=auto;html=1;entryX=0;entryY=0.5;entryDx=0;entryDy=0;" edge="1" parent="1" source="B7gfF72Y0WXTD0_EOY2E-79" target="B7gfF72Y0WXTD0_EOY2E-77">
          <mxGeometry relative="1" as="geometry" />
        </mxCell>
        <mxCell id="B7gfF72Y0WXTD0_EOY2E-79" value="블랙리스트 유저&lt;br&gt;신고사유 이메일 전송" style="rounded=0;whiteSpace=wrap;html=1;" vertex="1" parent="1">
          <mxGeometry x="780" y="1109" width="120" height="60" as="geometry" />
        </mxCell>
        <mxCell id="B7gfF72Y0WXTD0_EOY2E-86" value="신고하기" style="rounded=0;whiteSpace=wrap;html=1;" vertex="1" parent="1">
          <mxGeometry x="480" y="710" width="120" height="60" as="geometry" />
        </mxCell>
      </root>
    </mxGraphModel>
  </diagram>
</mxfile>
